# xmcd CD database file
#
# Track frame offsets:
#	151
#	11416
#	25609
#	40926
#	54969
#	66262
#	79665
#	95622
#	119674
#	135793
#	150598
#	163679
#	178781
#	196747
#	212197
#	225669
#	242735
#	256421
#
# Disc length: 3619 seconds
#
# Revision: 0
# Processed by: cddbd v1.5.2PL0 Copyright (c) Steve Scherf et al.
# Submitted via: CDex 1.50beta10
#
DISCID=e50e2112
DTITLE=Best Of Jazz 7 - ¥N¨O¿Ô§h7
DYEAR=2000
DGENRE=Jazz
TTITLE0=MY FUNNY VALENTINE
TTITLE1=CHEEK TO CHEEK
TTITLE2=I CAN'T GIVE YOU ANYTHING BUT LOVE
TTITLE3=THE SHADOW OF YOUR SMILE
TTITLE4=THE LADY IS A TRAMP
TTITLE5=WHEN I FALL IN LOVE
TTITLE6=BUT NOT FOR ME
TTITLE7=AUTUM IN NEW YORK
TTITLE8=THE GIRL FROM IPANEMA
TTITLE9=UNCHAINED MELODY
TTITLE10=BESAME MUCHO
TTITLE11=COME RAIN OR COME SHINE
TTITLE12=FOR ALL WE KNOW
TTITLE13=ISN'T IT ROMANTIC
TTITLE14=MARY HAS A LITTLE LAMB
TTITLE15=OUR LOVE IS HERE TO STAY
TTITLE16=SOMEBODY TO WATCH OVER ME
TTITLE17=STRANGE ON THE SHORE
EXTD=YEAR: 2000
EXTT0=
EXTT1=
EXTT2=
EXTT3=
EXTT4=
EXTT5=
EXTT6=
EXTT7=
EXTT8=
EXTT9=
EXTT10=
EXTT11=
EXTT12=
EXTT13=
EXTT14=
EXTT15=
EXTT16=
EXTT17=
PLAYORDER=
